<svg xmlns="http://www.w3.org/2000/svg" viewBox="0 0 800 800"><path d="M400,217.6c-100.6,0-182.4,81.8-182.4,182.4S299.4,582.4,400,582.4,582.4,500.6,582.4,400,500.6,217.6,400,217.6ZM352.6,528.8a4.7,4.7,0,0,0-4.6,4.6v31.9l-5.7-1.9v-30a4.6,4.6,0,1,0-9.1,0v26.5l-5.7-2.5v-24a4.7,4.7,0,0,0-4.6-4.6,4.6,4.6,0,0,0-4.5,4.6v19.4c-3-1.5-5.9-3.2-8.7-4.9V520.2h56.1v49.7c-3-.6-5.9-1.2-8.7-2V533.4A4.6,4.6,0,0,0,352.6,528.8Zm124.5,0a4.7,4.7,0,0,0-4.6,4.6v24l-5.7,2.5V533.4a4.6,4.6,0,1,0-9.1,0v30l-5.7,1.9V533.4a4.7,4.7,0,0,0-4.6-4.6,4.6,4.6,0,0,0-4.5,4.6v34.5c-2.8.8-5.7,1.4-8.7,2V520.2h56.1v27.7c-2.8,1.7-5.7,3.4-8.7,4.9V533.4A4.6,4.6,0,0,0,477.1,528.8ZM486,434c-6.6,0-13.3-4.1-13.3-13.2a4.5,4.5,0,0,0-4.5-4.6h-7.3V383.8h7.3a4.8,4.8,0,0,0,3.2-1.3l17.8-17.8a4.6,4.6,0,0,0,1-5,4.6,4.6,0,0,0-4.2-2.8H465.5l-2.9-8.7h8.5a4.5,4.5,0,0,0,4.6-4.5V278.5a4.5,4.5,0,0,0-4.6-4.6H442.6a52,52,0,0,0-17.8-13.4,27,27,0,0,0,6.4-17.6,4.6,4.6,0,0,0-4.5-4.6h-4.4V228.1a173.3,173.3,0,0,1,140,232.6H490.5V438.5A4.5,4.5,0,0,0,486,434ZM348.2,416.2V383.8H451.8v32.4ZM325,366H475l-8.7,8.7H333.7Zm26.1-83a50.3,50.3,0,0,0-6.1,23.9v32.2H333.4V283Zm-7,73.9,2.9-8.7H453l2.9,8.7ZM448.9,283h17.7v56.1H455V306.9A50.3,50.3,0,0,0,448.9,283ZM400,339.1a28.1,28.1,0,1,1,28.1-28A28.1,28.1,0,0,1,400,339.1ZM318.6,442.7c7.4-1.5,15.5-6.7,17.4-17.4H464c1.9,10.7,10,15.9,17.4,17.4v17.6L401,434.2l-1.4-.2-1.4.2-79.6,26Zm95.1-184.3a4.7,4.7,0,0,0-2,4.5h0a4.7,4.7,0,0,0,3.3,3.6,42.3,42.3,0,0,1,30.8,40.4v32.2H424.3a37.2,37.2,0,1,0-48.6,0H354.2V306.9A42.3,42.3,0,0,1,385,266.5a4.5,4.5,0,0,0,1.3-8.1,19.3,19.3,0,0,1-7.9-11h43.2A19.3,19.3,0,0,1,413.7,258.4Zm-36-20.1h-4.4a4.6,4.6,0,0,0-4.5,4.6,27,27,0,0,0,6.4,17.6,52,52,0,0,0-17.8,13.4H328.9a4.5,4.5,0,0,0-4.6,4.6v65.2a4.5,4.5,0,0,0,4.6,4.5h8.5l-2.9,8.7H314a4.6,4.6,0,0,0-4.2,2.8,4.6,4.6,0,0,0,1,5l17.8,17.8a4.8,4.8,0,0,0,3.2,1.3h7.3v32.4h-7.3a4.5,4.5,0,0,0-4.5,4.6c0,9.1-6.7,13.2-13.3,13.2a4.5,4.5,0,0,0-4.5,4.5v22.2H237.7a173.3,173.3,0,0,1,140-232.6ZM301.2,475.5l98.4-32.2,99.1,32.2Zm1,26.9h71.1a4.4,4.4,0,0,1,4.4,4.3,4.4,4.4,0,0,1-4.4,4.4H302.2a4.4,4.4,0,0,1-4.4-4.4A4.4,4.4,0,0,1,302.2,502.4Zm-12.9-32.6-18.2,5.9a4.7,4.7,0,0,0-3.1,5.1,4.6,4.6,0,0,0,4.5,3.8h4.4v13.2a4.6,4.6,0,0,0,4.5,4.6h8.1a12.6,12.6,0,0,0-.8,4.3,13.5,13.5,0,0,0,11.9,13.4v21.8a174.5,174.5,0,0,1-59.2-72.1ZM286,493.3v-8.7H514v8.7Zm140.7,9.1h71.1a4.4,4.4,0,0,1,4.4,4.3,4.4,4.4,0,0,1-4.4,4.4H426.7a4.4,4.4,0,0,1-4.4-4.4A4.4,4.4,0,0,1,426.7,502.4Zm-51.8,17.7a13.5,13.5,0,0,0,11.9-13.4,12.6,12.6,0,0,0-.8-4.3h28a12.6,12.6,0,0,0-.8,4.3,13.5,13.5,0,0,0,11.9,13.4v51.4a175.9,175.9,0,0,1-50.2,0Zm124.5,0a13.5,13.5,0,0,0,11.9-13.4,12.6,12.6,0,0,0-.8-4.3h8.1a4.6,4.6,0,0,0,4.5-4.6V484.6h4.4a4.6,4.6,0,0,0,4.5-3.8,4.7,4.7,0,0,0-3.1-5.1l-18.3-5.9h48a174.5,174.5,0,0,1-59.2,72.1ZM413.2,238.3H386.8V227.2c4.4-.3,8.9-.5,13.2-.5s8.8.2,13.2.5Z" style="fill:#6399cc"/><path d="M414.8,306.5H404.6V296.2a4.6,4.6,0,0,0-9.2,0v14.9a4.6,4.6,0,0,0,4.6,4.5h14.8a4.6,4.6,0,0,0,4.6-4.5A4.7,4.7,0,0,0,414.8,306.5Z" style="fill:#6399cc"/><path d="M612.8,187.2A300.9,300.9,0,1,0,187.2,612.8,300.9,300.9,0,1,0,612.8,187.2ZM400,691.9a291.9,291.9,0,1,1,206.4-85.5A290,290,0,0,1,400,691.9Z" style="fill:#6399cc"/><g style="opacity:0.4"><polygon points="273.6 600.9 278.7 578 271.7 572.9 251.6 585.3 268.9 561.1 259.9 554.7 225.9 602.4 234.1 608.2 265.6 588.7 257.7 624.1 257.5 625 265.7 630.8 299.7 583.2 290.8 576.8 273.6 600.9" style="fill:#6399cc"/><path d="M246.1,547.6a20,20,0,0,0-4.8-14.8,20.5,20.5,0,0,0-13.8-7.6c-5.3-.6-10.5,1.1-15.3,5l-29.5,24.5,6.2,7.3.8,1.1,28.8-23.9c2.6-2.1,5.2-3.1,7.7-2.8a9.4,9.4,0,0,1,6.5,3.5A9.5,9.5,0,0,1,235,547c-.2,2.4-1.6,4.8-4.2,7l-28.7,23.9,7,8.4,29.4-24.4C243.3,557.8,245.8,553.1,246.1,547.6Z" style="fill:#6399cc"/><path d="M223.3,510.4l-4.9-9.8-21.3,10.7-3.7-7.4,15.8-20,.5-.7L204,471.8l-17,22.9c-5.7-4.5-12-5-18.9-1.7q-7.3,4-9,11.1a17.9,17.9,0,0,0,1.8,12.4L171,536.6,222.1,511Zm-50.5-8a8,8,0,0,1,3.6-.9h.1a5.7,5.7,0,0,1,1.8.3A7.6,7.6,0,0,1,183,506l4.9,9.9-12.6,6.3L170.1,512a8.4,8.4,0,0,1-1-5.3C169.4,505,170.6,503.6,172.8,502.4Z" style="fill:#6399cc"/><polygon points="200.3 456.4 177.2 462.3 172 441.9 171.7 440.5 161.7 443.1 167.3 464.8 154 468.2 147.8 444.1 147.5 442.7 137.1 445.4 145.9 480.1 146.3 481.5 203 467 200.3 456.4" style="fill:#6399cc"/><path d="M193.2,426.3l-.3-11-23.9.8-.2-8.2,22.6-11.6.8-.4-.4-12.8-25,13.7c-3.2-6-8.3-9.2-15.3-9.4h-1.2c-5.6.4-9.9,2.5-12.8,6.3a18.5,18.5,0,0,0-3.6,12.1l.8,22.5,57.2-2Zm-42.3-28.4h.3a7.8,7.8,0,0,1,4.7,1.8,7.5,7.5,0,0,1,2.5,5.8l.4,11-14.2.5-.4-11.5a7.9,7.9,0,0,1,1.3-5.2c1-1.5,2.7-2.2,5.1-2.4Z" style="fill:#6399cc"/><polygon points="199.7 342.5 199.9 341.1 189.4 339.1 184.4 364.9 171 362.3 175 341.6 175.3 340.3 165.2 338.3 160.9 360.4 148 357.9 152.7 333.4 153 332 142.4 330 135.6 365.3 135.4 366.6 192.9 377.7 199.7 342.5" style="fill:#6399cc"/><polygon points="202.3 334.4 216.9 300.1 207.1 295.9 196.7 320.1 184.2 314.7 193 294.1 183.6 290 174.7 310.7 162.6 305.5 173 281.3 163.1 277.1 148.4 311.4 201 333.8 202.3 334.4" style="fill:#6399cc"/><path d="M187.4,268.9a16.8,16.8,0,0,0,11.5,3.4c4-.4,7.8-2.3,11.4-5.9,1.9-1.8,3.5-3.6,5-5.1,3-2.8,5.7-3.2,8.4-1.2s4.5,4.6-.3,11.3a21.7,21.7,0,0,1-12.7,8.6l-1.4.3,2.7,10.8,1.3-.3a31.5,31.5,0,0,0,19.1-12.7c7.6-10.6,6.8-19.9-2.2-26.8a17.4,17.4,0,0,0-11.4-3.5c-4.2.2-8.3,2.2-12.1,6.2-1.8,1.8-3.2,3.3-4.3,4.3a9.5,9.5,0,0,1-4.8,2.7,4.8,4.8,0,0,1-3.6-.8,6,6,0,0,1-2.8-4.7,9.1,9.1,0,0,1,1.9-5.4,23.1,23.1,0,0,1,10.7-7.8l1.3-.5-3.8-10.3-1.3.4a31.5,31.5,0,0,0-15.7,11.2c-3.4,4.9-4.9,9.6-4.2,14.1S183.2,265.8,187.4,268.9Z" style="fill:#6399cc"/><rect x="418.6" y="183" width="10.7" height="10.51" transform="translate(188.6 587.9) rotate(-83.4)" style="fill:#6399cc"/><polygon points="575.4 287.2 583.9 280.6 567.6 259.9 578.4 251.4 592.2 269.1 600.3 262.8 586.5 245.1 596.8 237 612.2 256.6 613.1 257.7 621.5 251.1 599.4 222.8 598.5 221.7 553.5 257 552.4 257.9 574.6 286.1 575.4 287.2" style="fill:#6399cc"/><polygon points="579.7 294.6 595.7 328.2 605.4 323.6 594.1 299.8 637.3 279.2 632.5 269.3 580.9 294 579.7 294.6" style="fill:#6399cc"/><path d="M625.8,325.5a101.6,101.6,0,0,0-12.7,3.5,13.9,13.9,0,0,0-3,1.6l-2.2,1.6a19.6,19.6,0,0,0-5.6,8.2,20.7,20.7,0,0,0,5.2,22.4,19.3,19.3,0,0,0,8.5,4.8,13.2,13.2,0,0,0,4.2.7h2c2.4-.1,6.6-1,12.9-2.4a113.5,113.5,0,0,0,12.8-3.5,14.6,14.6,0,0,0,5.2-3.3,20.7,20.7,0,0,0,5.7-8.1,20.1,20.1,0,0,0,.6-12,18.7,18.7,0,0,0-5.8-10.3,20.5,20.5,0,0,0-8.6-4.9,16.4,16.4,0,0,0-6.1-.6,87.4,87.4,0,0,0-13.1,2.4Zm13.8,8.7h.3a10.6,10.6,0,0,1,3.6.9,9.6,9.6,0,0,1,3.1,2.4,9.9,9.9,0,0,1,1.9,8.5,7.4,7.4,0,0,1-1.7,3.3h-.1a8.9,8.9,0,0,1-3.5,2.7,65.1,65.1,0,0,1-10.5,3c-5.3,1.2-8.9,1.9-10.7,1.9a7.9,7.9,0,0,1-4.5-.9h-.1a8.1,8.1,0,0,1-3-2.3,8.9,8.9,0,0,1-2-4,8.1,8.1,0,0,1,.1-4.4h0a7.5,7.5,0,0,1,1.8-3.4,7.6,7.6,0,0,1,3.5-2.7,61.9,61.9,0,0,1,10.5-3c5.2-1.2,8.9-1.9,10.8-1.9Z" style="fill:#6399cc"/><path d="M666,380.3H607.4v11h21.7v11.1c.1,6,2.1,10.6,6,13.7a18.6,18.6,0,0,0,11.7,4.5h.5a19.7,19.7,0,0,0,8.5-1.9,14.5,14.5,0,0,0,5.9-4.5,17.7,17.7,0,0,0,3.5-6.6,27.6,27.6,0,0,0,.7-6.5Zm-10.7,21.4a9,9,0,0,1-1.3,5.2,5.3,5.3,0,0,1-2.2,2,9.3,9.3,0,0,1-4.1.8h0a8,8,0,0,1-5.3-1.9c-1.5-1.2-2.3-3.2-2.4-5.8V391.3h15.3Z" style="fill:#6399cc"/><polygon points="606.6 425.8 599.1 460.9 598.8 462.3 609.3 464.5 614.8 438.7 628.2 441.6 623.5 463.6 633.5 465.7 638.2 443.7 651.1 446.5 645.9 470.9 645.6 472.2 656.1 474.5 663.9 438 608 426.1 606.6 425.8" style="fill:#6399cc"/><path d="M591.5,479.9l21.6,9.9-3.4,7.4-26.3.3-5.3,11.7,28.5-1.1c.1,7.2,3.6,12.5,10.6,15.7a20.5,20.5,0,0,0,7,1.7h.4a15.4,15.4,0,0,0,6.7-1.6,17.7,17.7,0,0,0,8.6-9.2l9.4-20.5L596,469.9Zm43.9,20-4.8,10.5a8.1,8.1,0,0,1-3.5,4.1c-1.5.8-3.4.7-5.6-.2a7.3,7.3,0,0,1-3.9-4c-.9-1.7-.7-3.8.3-6.2l4.6-10.1Z" style="fill:#6399cc"/><path d="M608.3,537.3h0a16.8,16.8,0,0,0-11.4-3.7c-4,.2-7.9,2.1-11.6,5.5l-5.2,4.9c-3.1,2.8-5.7,3.1-8.4.9s-4.3-4.7.6-11.2a21.8,21.8,0,0,1,13-8.2l1.4-.3-2.3-10.8-1.3.2a31.6,31.6,0,0,0-19.5,12.1c-7.9,10.3-7.5,19.6,1.3,26.9a17.5,17.5,0,0,0,11.3,3.8q6.4,0,12.3-5.7c1.9-1.9,3.3-3.3,4.4-4.2a9,9,0,0,1,5-2.6,4.6,4.6,0,0,1,3.5,1,5.7,5.7,0,0,1,2.6,4.7,8.8,8.8,0,0,1-2,5.3,22.7,22.7,0,0,1-11,7.5l-1.3.4,3.5,10.5,1.3-.4a31,31,0,0,0,16-10.7c3.6-4.7,5.2-9.4,4.7-14A17,17,0,0,0,608.3,537.3Z" style="fill:#6399cc"/><path d="M560.2,592.9h0a109.9,109.9,0,0,0-7.1-11.1,95.8,95.8,0,0,0-8-10.5,12.7,12.7,0,0,0-2.6-2.2l-2.3-1.4a20.7,20.7,0,0,0-21.1,1.5,20,20,0,0,0-8.5,13.5c-.9,5.5.4,10.7,3.7,15.7l7.3,10.4,18-12.5-6.1-8.8-9.1,6.3-.8-1.3a10.1,10.1,0,0,1-2-7.8,8.9,8.9,0,0,1,3.9-6.3,8.1,8.1,0,0,1,4.2-1.6,8.4,8.4,0,0,1,3.9.3,8.1,8.1,0,0,1,3.8,2.3c1.4,1.3,3.6,4.2,6.7,8.6a65.1,65.1,0,0,1,5.8,9.4,7.7,7.7,0,0,1,.8,4.4,8.9,8.9,0,0,1-1,3.7,9.9,9.9,0,0,1-2.9,3.3,8.9,8.9,0,0,1-5.9,1.6,10.3,10.3,0,0,1-5.6-2.3l-.8-.7-9.3,6.5,1.1,1.2a22.9,22.9,0,0,0,12.6,6.5l2.3.2h.5a20.2,20.2,0,0,0,11.4-3.8,20,20,0,0,0,7.5-9.3,20.5,20.5,0,0,0,1.3-9.8A16.2,16.2,0,0,0,560.2,592.9Z" style="fill:#6399cc"/><path d="M485.1,589.1l8.9,22.2-7.6,3-19.3-18-11.9,4.8L476.6,620c-4.9,5.2-5.9,11.5-3.2,18.7,2.2,5.1,5.7,8.4,10.2,9.8a15,15,0,0,0,4.7.8h.4a20.9,20.9,0,0,0,7.5-1.5l20.9-8.4-21.8-54.3Zm2,49.7c-1.7-.4-3-1.8-3.9-4a7.3,7.3,0,0,1-.2-5.6c.6-1.8,2.2-3.3,4.6-4.3l10.2-4.1,5.3,13.2-10.7,4.2A7.3,7.3,0,0,1,487.1,638.8Z" style="fill:#6399cc"/><path d="M454.6,617.6a26.3,26.3,0,0,0-1.3-3.2,23,23,0,0,1-1.5-2.3,20.5,20.5,0,0,0-7.8-6.2c-3.3-1.7-7.3-2.2-11.9-1.6a20,20,0,0,0-10.8,5.2,19.6,19.6,0,0,0-5.4,8.1,15.6,15.6,0,0,0-1.1,6.2,102.9,102.9,0,0,0,1.5,13,131.2,131.2,0,0,0,2.5,13,15.2,15.2,0,0,0,2.9,5.4,21.8,21.8,0,0,0,7.6,6.3,19.4,19.4,0,0,0,7.8,1.8h.6l3.6-.3a19.1,19.1,0,0,0,10.7-5,20.1,20.1,0,0,0,5.5-8.3,15,15,0,0,0,1.1-6c.1-2.3-.4-6.6-1.4-13.2A101.8,101.8,0,0,0,454.6,617.6Zm-7.2,25.5h0a7.5,7.5,0,0,1-1.2,4.3,7.6,7.6,0,0,1-2.5,2.9,10.2,10.2,0,0,1-4.1,1.7,10.8,10.8,0,0,1-4.5-.3,8.9,8.9,0,0,1-3.2-2.1h-.1a7.4,7.4,0,0,1-2.4-3.6c-.7-1.8-1.4-5.4-2.3-10.8a67.3,67.3,0,0,1-1.1-10.8,8.1,8.1,0,0,1,1.3-4.3h0a7.1,7.1,0,0,1,2.4-2.8,9,9,0,0,1,4.2-1.8h1.8a6.6,6.6,0,0,1,2.7.6,7,7,0,0,1,3.3,2,8.5,8.5,0,0,1,2.4,3.7c.7,1.8,1.4,5.4,2.2,10.7A57.2,57.2,0,0,1,447.4,643.1Z" style="fill:#6399cc"/><path d="M384.5,606.2h0a20.5,20.5,0,0,0-15.1,4.7c-4.1,3.3-6.5,8.2-7.1,14.4l-3,38.2,11,.8,2.9-37.2q.4-5.1,3.3-7.5a9.2,9.2,0,0,1,7.1-2.2,8.9,8.9,0,0,1,6.6,3.3c1.7,1.8,2.4,4.5,2.2,7.9l-2.9,37.2,10.9.9,3-38.2c.4-6.2-1.2-11.4-4.9-15.4A20.7,20.7,0,0,0,384.5,606.2Z" style="fill:#6399cc"/><path d="M338.5,620.8l-10.6-3.4c-5.7-1.7-10.7-1.1-14.9,1.6a19.6,19.6,0,0,0-8.9,18.9,15.1,15.1,0,0,0,2.6,7,19.2,19.2,0,0,0,5.2,5.4,27,27,0,0,0,6,2.5l20,6.4,17.6-55.9L345.1,600Zm-17.8,21.7h-.1a9,9,0,0,1-4.4-2.9,5.7,5.7,0,0,1-1.3-2.7,8.9,8.9,0,0,1,.5-4.1,8.1,8.1,0,0,1,3.4-4.5,6.5,6.5,0,0,1,3.4-1h.2a8.5,8.5,0,0,1,2.6.5l10.3,3.2-4.7,14.6Z" style="fill:#6399cc"/></g><path d="M261,211.1a12,12,0,0,0-6.5-.1,22.5,22.5,0,0,0,.5-2.2,11.7,11.7,0,0,0-.1-4.2,14.7,14.7,0,0,0-3.4-6.7,16.7,16.7,0,0,0-11.1-6c-4.1-.3-8.4,1.4-12.7,5.1l-15.9,13.7-1,.9,37.4,43.2.9,1.1L267.4,240a15.3,15.3,0,0,0,5.6-11.2c.4-4.4-1.1-8.6-4.5-12.5A17.9,17.9,0,0,0,261,211.1Zm-2.1,22.1-8.5,7.4L241.2,230l8.5-7.4c2-1.7,3.9-2.4,5.6-2.2a8,8,0,0,1,4.6,2.6,7.7,7.7,0,0,1,1.9,4.9C261.8,229.7,260.8,231.5,258.9,233.2Zm-13.6-22.9c0,1.7-1,3.4-2.9,5.1l-7.9,6.8-8.7-10,7.9-6.8c2-1.7,3.8-2.5,5.4-2.3h0a7.2,7.2,0,0,1,4.5,2.4A6.8,6.8,0,0,1,245.3,210.3Z" style="fill:#6399cc"/><path d="M307,181.1a118.4,118.4,0,0,0-6.6-11.5,14.1,14.1,0,0,0-4.5-4.1,20.4,20.4,0,0,0-9.2-3.5,20.2,20.2,0,0,0-11.9,2.4,20.6,20.6,0,0,0-8.5,8.3,21.5,21.5,0,0,0-2.5,9.6,15.8,15.8,0,0,0,1,6.1,98.2,98.2,0,0,0,5.6,12,107.7,107.7,0,0,0,6.7,11.4,18.9,18.9,0,0,0,2.3,2.5l2.1,1.7a19.9,19.9,0,0,0,9.4,3.3l1.8.2h.5a21.4,21.4,0,0,0,18-10.9,18.9,18.9,0,0,0,2.4-9.5,14.5,14.5,0,0,0-.9-6.2A130,130,0,0,0,307,181.1Zm-9.6,26a7.6,7.6,0,0,1-4.4,1.1,8.1,8.1,0,0,1-3.8-.8,8.2,8.2,0,0,1-3.5-2.8,63,63,0,0,1-5.6-9.3,74.4,74.4,0,0,1-4.6-10,7.8,7.8,0,0,1-.2-4.5,9.5,9.5,0,0,1,1.4-3.5,10.5,10.5,0,0,1,3.3-2.9,10.1,10.1,0,0,1,4.4-1.2,7.5,7.5,0,0,1,3.7.9h.1a8.1,8.1,0,0,1,3.5,2.7,72.5,72.5,0,0,1,5.6,9.4c2.5,4.8,4.1,8.1,4.6,9.9a8.8,8.8,0,0,1,.3,4.5h-.1a7.4,7.4,0,0,1-1.4,3.5A7.3,7.3,0,0,1,297.4,207.1Z" style="fill:#6399cc"/><path d="M355.5,153.8h-.1c-1.6-5.4-4.6-9-8.9-11s-7.9-2-12.6-.8l-20.4,5.5-1.3.4,15.1,56.5,10.6-2.8-6.1-23,7.9-2.2,16.4,19.5.6.7,12.4-3.4-19-21.2C355.5,167.3,357.3,161.2,355.5,153.8Zm-10.7,8.3c-.8,1.7-2.6,3-5.1,3.7l-10.6,2.8-3.7-13.7,11.1-2.9a7.9,7.9,0,0,1,5.3,0h.1c1.6.7,2.7,2.2,3.4,4.5A7.7,7.7,0,0,1,344.8,162.1Z" style="fill:#6399cc"/><path d="M410.9,149.2a15.8,15.8,0,0,0-2.2-5.7,20.2,20.2,0,0,0-6.9-7.1,20.9,20.9,0,0,0-29.4,8.3,17.2,17.2,0,0,0-1.7,5.9c-.4,2.2-.4,6.7-.2,13.2a102.7,102.7,0,0,0,1.1,13.2,13.5,13.5,0,0,0,.9,3.2l1.2,2.5h0a20.6,20.6,0,0,0,7,7.1,19.6,19.6,0,0,0,10.5,3h1.1a19.4,19.4,0,0,0,11.3-3.8,18.4,18.4,0,0,0,6.3-7.5,13.7,13.7,0,0,0,1.9-6,101.9,101.9,0,0,0,.1-13.1A129.6,129.6,0,0,0,410.9,149.2Zm-20.3-4.6h.4a9.8,9.8,0,0,1,4,.8,10.1,10.1,0,0,1,2.9,2.4h.1a9,9,0,0,1,2,3.9,79.2,79.2,0,0,1,.9,11,66.3,66.3,0,0,1-.2,10.9,7.3,7.3,0,0,1-1.7,4.1h-.1a7.3,7.3,0,0,1-2.7,2.5,9.6,9.6,0,0,1-8.7.3,8.3,8.3,0,0,1-3.1-2.4,8,8,0,0,1-2-4,75.4,75.4,0,0,1-.9-10.8,67.7,67.7,0,0,1,.2-11,8.3,8.3,0,0,1,1.7-4.2,8.9,8.9,0,0,1,2.9-2.5,9,9,0,0,1,4.2-1.2Z" style="fill:#6399cc"/><path d="M487.6,165.9a19.3,19.3,0,0,0-.6-7.5c-2-7.5-6.7-12.4-14.2-14.6l-19.6-5.5-16,56.3,18.9,5.4a20.5,20.5,0,0,0,5.8.9h.5a17,17,0,0,0,5.1-.7,21.7,21.7,0,0,0,8.7-4.8l2.4-2.5a13.5,13.5,0,0,0,1.9-3.1,85.3,85.3,0,0,0,4.2-12.1C486.2,172.2,487.2,168.3,487.6,165.9Zm-18.7-12h.1a9.5,9.5,0,0,1,7,6.4,8,8,0,0,1,.5,4.7,77.9,77.9,0,0,1-2.5,10,86.5,86.5,0,0,1-3,9.5,8.3,8.3,0,0,1-2.6,3.4c-2.5,2.2-5.8,2.8-9.7,1.7l-8-2.3,10.1-35.7Z" style="fill:#6399cc"/><polygon points="516.1 172.3 539.3 184.9 544.4 175.4 511.6 157.6 483.7 209.1 516.5 226.9 521.6 217.5 498.4 204.9 504.9 192.9 524.7 203.6 529.6 194.6 509.8 183.9 516.1 172.3" style="fill:#6399cc"/><polygon points="580.7 204.1 546.7 226.6 563.5 189.5 554.6 182 531.3 237.7 530.9 238.7 537.3 244.1 587.9 212.7 589.5 211.7 580.7 204.1" style="fill:#6399cc"/><path d="M327.3,420.8a4.5,4.5,0,0,1,4.5-4.6h7.3V383.8h-7.3a4.8,4.8,0,0,1-3.2-1.3l-17.8-17.8a4.6,4.6,0,0,1-1-5,4.6,4.6,0,0,1,4.2-2.8h20.5l2.9-8.7h-8.5a4.5,4.5,0,0,1-4.6-4.5V278.5a4.5,4.5,0,0,1,4.6-4.6h28.5a52,52,0,0,1,17.8-13.4,27,27,0,0,1-6.4-17.6,4.6,4.6,0,0,1,4.5-4.6h4.4V228.1a173.3,173.3,0,0,0-140,232.6h71.8V438.5A4.5,4.5,0,0,1,314,434C320.6,434,327.3,429.9,327.3,420.8Z" style="fill:#6399cc;opacity:0.2"/><path d="M422.3,228.1v10.2h4.4a4.6,4.6,0,0,1,4.5,4.6,27,27,0,0,1-6.4,17.6,52,52,0,0,1,17.8,13.4h28.5a4.5,4.5,0,0,1,4.6,4.6v65.2a4.5,4.5,0,0,1-4.6,4.5h-8.5l2.9,8.7H486a4.6,4.6,0,0,1,4.2,2.8,4.6,4.6,0,0,1-1,5l-17.8,17.8a4.8,4.8,0,0,1-3.2,1.3h-7.3v32.4h7.3a4.5,4.5,0,0,1,4.5,4.6c0,9.1,6.7,13.2,13.3,13.2a4.5,4.5,0,0,1,4.5,4.5v22.2h71.8a173.3,173.3,0,0,0-140-232.6Z" style="fill:#6399cc;opacity:0.2"/></svg>