<svg xmlns="http://www.w3.org/2000/svg" viewBox="0 0 850 260"><path d="M35,197.4V62.6H76.7c14.1,0,24.8,3.1,32.1,9.4s11,15.4,11,27.5q0,10.4-4.5,17.7a27,27,0,0,1-12.5,10.9,23.2,23.2,0,0,1,14,10.4c3.3,5.2,4.9,11.6,4.9,19.3,0,13.1-3.6,23-10.8,29.6s-17.6,10-31.2,10ZM62.3,119H76.4c10.7,0,16.1-5.6,16.1-16.6,0-6.1-1.3-10.5-3.7-13.2s-6.5-3.9-12.1-3.9H62.3Zm0,19.8v36H79.7q7.3,0,11.1-4.5c2.5-3,3.8-7.3,3.8-12.9q0-18.2-13.2-18.6Z" style="fill:#6399cb"/><path d="M236.4,142.1c0,18.1-4.2,32.2-12.8,42.2s-20.4,15-35.6,15-27-5-35.7-14.9-13-23.8-13.1-41.6V119.7c0-18.5,4.3-33,12.8-43.4s20.5-15.6,35.8-15.6,26.8,5.1,35.5,15.3,13,24.6,13.1,43.1Zm-27.3-22.6c0-12.1-1.7-21.2-5.2-27.1s-8.8-8.9-16.1-8.9-12.6,2.8-16,8.6-5.3,14.4-5.4,26v24c0,11.8,1.8,20.5,5.3,26.1s8.9,8.4,16.3,8.4,12.4-2.7,15.8-8.2,5.2-13.9,5.3-25.4Z" style="fill:#6399cb"/><path d="M296.8,148.2H283.3v49.2H256.1V62.6h43.4c13.7,0,24.2,3.5,31.7,10.6s11.1,17.1,11.1,30.1c0,17.9-6.5,30.5-19.5,37.6l23.6,55.2v1.3H317.1Zm-13.5-22.7h15.5c5.4,0,9.5-1.8,12.2-5.5s4.1-8.4,4.1-14.5c0-13.5-5.3-20.2-15.8-20.2h-16Z" style="fill:#6399cb"/><path d="M456,142.1c0,18.1-4.3,32.2-12.8,42.2s-20.5,15-35.6,15-27.1-5-35.7-14.9-13-23.8-13.2-41.6V119.7c0-18.5,4.3-33,12.9-43.4s20.5-15.6,35.8-15.6,26.8,5.1,35.5,15.3,13,24.6,13.1,43.1Zm-27.3-22.6c0-12.1-1.8-21.2-5.2-27.1s-8.8-8.9-16.1-8.9-12.6,2.8-16.1,8.6-5.2,14.4-5.3,26v24c0,11.8,1.7,20.5,5.2,26.1s9,8.4,16.4,8.4,12.3-2.7,15.8-8.2,5.2-13.9,5.3-25.4Z" style="fill:#6399cb"/><path d="M499.4,197.4H472.1V170.3h27.3Z" style="fill:#b0c5d9"/><path d="M517.7,197.4V62.6h35.6c15.8,0,28.3,5,37.7,15s14.1,23.7,14.3,41.1v21.9c0,17.7-4.7,31.6-14,41.7s-22.3,15.1-38.7,15.1ZM544.9,85.3v89.5h8.2c9,0,15.4-2.4,19.1-7.1s5.7-13.1,5.9-24.8V119.4c0-12.6-1.8-21.3-5.3-26.3s-9.5-7.6-18-7.8Z" style="fill:#6399cb"/><path d="M694.5,139.1H652.1v35.7h50.2v22.6H624.9V62.6h77.2V85.3h-50v31.8h42.4Z" style="fill:#6399cb"/><path d="M761.9,160.4l22.7-97.8H815L776.1,197.4H747.7L709.1,62.6h30.2Z" style="fill:#6399cb"/></svg>